<svg width="182" height="182" viewBox="0 0 182 182" fill="none" xmlns="http://www.w3.org/2000/svg">
    <mask id="mask0" mask-type="alpha" maskUnits="userSpaceOnUse" x="0" y="0" width="182" height="182">
        <circle cx="91" cy="91" r="91" transform="rotate(90 91 91)" fill="#FFD466"/>
    </mask>
    <g mask="url(#mask0)">
        <path d="M233.141 79.3598L99.5928 -54.1484L92.9582 -47.5158L226.506 85.9924L233.141 79.3598Z" fill="#FFD466"/>
        <path d="M218.305 94.1799L84.7568 -39.3284L78.1222 -32.6957L211.67 100.813L218.305 94.1799Z" fill="#FFD466"/>
        <path d="M203.46 109.004L69.9121 -24.5044L63.2775 -17.8718L196.826 115.636L203.46 109.004Z" fill="#FFD466"/>
        <path d="M188.62 123.824L55.0723 -9.68457L48.4377 -3.05195L181.986 130.456L188.62 123.824Z" fill="#FFD466"/>
        <path d="M173.887 138.752L40.3389 5.24414L33.7043 11.8768L167.252 145.385L173.887 138.752Z" fill="#FFD466"/>
        <path d="M159.042 153.576L25.4941 20.0679L18.8595 26.7005L152.408 160.209L159.042 153.576Z" fill="#FFD466"/>
        <path d="M144.1 168.504L10.5518 34.9958L3.91715 41.6285L137.465 175.137L144.1 168.504Z" fill="#FFD466"/>
        <path d="M129.255 183.328L-4.29297 49.8198L-10.9276 56.4524L122.621 189.961L129.255 183.328Z" fill="#FFD466"/>
        <path d="M114.421 198.148L-19.1269 64.6394L-25.7616 71.272L107.787 204.78L114.421 198.148Z" fill="#FFD466"/>
        <path d="M99.5706 212.971L-33.9775 79.4624L-40.6121 86.095L92.936 219.603L99.5706 212.971Z" fill="#FFD466"/>
    </g>
</svg>
