<svg width="386" height="452" viewBox="0 0 386 452" fill="none" xmlns="http://www.w3.org/2000/svg">
    <path d="M86.0896 18.6324C91.2348 18.6324 95.4058 14.4614 95.4058 9.31619C95.4058 4.171 91.2348 0 86.0896 0C80.9444 0 76.7734 4.171 76.7734 9.31619C76.7734 14.4614 80.9444 18.6324 86.0896 18.6324Z" fill="#FFD466"/>
    <path d="M144.136 76.6795C149.282 76.6795 153.453 72.5085 153.453 67.3633C153.453 62.2181 149.282 58.0471 144.136 58.0471C138.991 58.0471 134.82 62.2181 134.82 67.3633C134.82 72.5085 138.991 76.6795 144.136 76.6795Z" fill="#FFD466"/>
    <path d="M202.183 134.726C207.329 134.726 211.5 130.555 211.5 125.41C211.5 120.265 207.329 116.094 202.183 116.094C197.038 116.094 192.867 120.265 192.867 125.41C192.867 130.555 197.038 134.726 202.183 134.726Z" fill="#FFD466"/>
    <path d="M260.589 192.773C265.734 192.773 269.905 188.602 269.905 183.457C269.905 178.312 265.734 174.141 260.589 174.141C255.443 174.141 251.272 178.312 251.272 183.457C251.272 188.602 255.443 192.773 260.589 192.773Z" fill="#FFD466"/>
    <path d="M318.636 250.822C323.781 250.822 327.952 246.651 327.952 241.505C327.952 236.36 323.781 232.189 318.636 232.189C313.49 232.189 309.319 236.36 309.319 241.505C309.319 246.651 313.49 250.822 318.636 250.822Z" fill="#FFD466"/>
    <path d="M376.684 309.227C381.83 309.227 386.001 305.056 386.001 299.91C386.001 294.765 381.83 290.594 376.684 290.594C371.539 290.594 367.368 294.765 367.368 299.91C367.368 305.056 371.539 309.227 376.684 309.227Z" fill="#FFD466"/>
    <path d="M21.951 82.7713C27.0961 82.7713 31.2671 78.6003 31.2671 73.4551C31.2671 68.3099 27.0961 64.1389 21.951 64.1389C16.8058 64.1389 12.6348 68.3099 12.6348 73.4551C12.6348 78.6003 16.8058 82.7713 21.951 82.7713Z" fill="#FFD466"/>
    <path d="M79.9978 140.818C85.143 140.818 89.314 136.647 89.314 131.502C89.314 126.357 85.143 122.186 79.9978 122.186C74.8526 122.186 70.6816 126.357 70.6816 131.502C70.6816 136.647 74.8526 140.818 79.9978 140.818Z" fill="#FFD466"/>
    <path d="M138.045 199.224C143.19 199.224 147.361 195.053 147.361 189.907C147.361 184.762 143.19 180.591 138.045 180.591C132.9 180.591 128.729 184.762 128.729 189.907C128.729 195.053 132.9 199.224 138.045 199.224Z" fill="#FFD466"/>
    <path d="M196.092 257.271C201.237 257.271 205.408 253.1 205.408 247.954C205.408 242.809 201.237 238.638 196.092 238.638C190.946 238.638 186.775 242.809 186.775 247.954C186.775 253.1 190.946 257.271 196.092 257.271Z" fill="#FFD466"/>
    <path d="M254.137 315.319C259.283 315.319 263.454 311.148 263.454 306.003C263.454 300.858 259.283 296.687 254.137 296.687C248.992 296.687 244.821 300.858 244.821 306.003C244.821 311.148 248.992 315.319 254.137 315.319Z" fill="#FFD466"/>
    <path d="M312.184 373.365C317.33 373.365 321.501 369.194 321.501 364.049C321.501 358.903 317.33 354.732 312.184 354.732C307.039 354.732 302.868 358.903 302.868 364.049C302.868 369.194 307.039 373.365 312.184 373.365Z" fill="#FFD466"/>
    <path d="M15.5017 205.314C20.6469 205.314 24.8179 201.143 24.8179 195.998C24.8179 190.853 20.6469 186.682 15.5017 186.682C10.3565 186.682 6.18554 190.853 6.18554 195.998C6.18554 201.143 10.3565 205.314 15.5017 205.314Z" fill="#FFD466"/>
    <path d="M73.907 263.361C79.0522 263.361 83.2232 259.19 83.2232 254.045C83.2232 248.9 79.0522 244.729 73.907 244.729C68.7618 244.729 64.5908 248.9 64.5908 254.045C64.5908 259.19 68.7618 263.361 73.907 263.361Z" fill="#FFD466"/>
    <path d="M131.954 321.408C137.099 321.408 141.27 317.237 141.27 312.092C141.27 306.947 137.099 302.776 131.954 302.776C126.809 302.776 122.638 306.947 122.638 312.092C122.638 317.237 126.809 321.408 131.954 321.408Z" fill="#FFD466"/>
    <path d="M190.001 379.454C195.146 379.454 199.317 375.283 199.317 370.138C199.317 364.993 195.146 360.822 190.001 360.822C184.856 360.822 180.685 364.993 180.685 370.138C180.685 375.283 184.856 379.454 190.001 379.454Z" fill="#FFD466"/>
    <path d="M248.049 437.501C253.194 437.501 257.365 433.33 257.365 428.185C257.365 423.04 253.194 418.869 248.049 418.869C242.903 418.869 238.732 423.04 238.732 428.185C238.732 433.33 242.903 437.501 248.049 437.501Z" fill="#FFD466"/>
    <path d="M9.40994 327.5C14.5551 327.5 18.7261 323.329 18.7261 318.184C18.7261 313.039 14.5551 308.868 9.40994 308.868C4.26475 308.868 0.0937555 313.039 0.0937555 318.184C0.0937555 323.329 4.26475 327.5 9.40994 327.5Z" fill="#FFD466"/>
    <path d="M67.4588 385.905C72.604 385.905 76.775 381.734 76.775 376.589C76.775 371.444 72.604 367.273 67.4588 367.273C62.3136 367.273 58.1426 371.444 58.1426 376.589C58.1426 381.734 62.3136 385.905 67.4588 385.905Z" fill="#FFD466"/>
    <path d="M125.506 443.952C130.651 443.952 134.822 439.781 134.822 434.636C134.822 429.491 130.651 425.32 125.506 425.32C120.36 425.32 116.189 429.491 116.189 434.636C116.189 439.781 120.36 443.952 125.506 443.952Z" fill="#FFD466"/>
</svg>
