<svg width="205" height="228" viewBox="0 0 205 228" fill="none" xmlns="http://www.w3.org/2000/svg">
    <g opacity="0.1">
        <path d="M83.1238 31.5717C85.2146 31.5717 86.9096 29.8767 86.9096 27.7859C86.9096 25.695 85.2146 24 83.1238 24C81.0329 24 79.3379 25.695 79.3379 27.7859C79.3379 29.8767 81.0329 31.5717 83.1238 31.5717Z" fill="#A394FB"/>
        <path d="M106.713 55.1606C108.804 55.1606 110.498 53.4656 110.498 51.3747C110.498 49.2839 108.804 47.5889 106.713 47.5889C104.622 47.5889 102.927 49.2839 102.927 51.3747C102.927 53.4656 104.622 55.1606 106.713 55.1606Z" fill="#A394FB"/>
        <path d="M130.301 78.7495C132.392 78.7495 134.087 77.0545 134.087 74.9636C134.087 72.8727 132.392 71.1777 130.301 71.1777C128.211 71.1777 126.516 72.8727 126.516 74.9636C126.516 77.0545 128.211 78.7495 130.301 78.7495Z" fill="#A394FB"/>
        <path d="M154.036 102.338C156.127 102.338 157.822 100.643 157.822 98.5525C157.822 96.4616 156.127 94.7666 154.036 94.7666C151.945 94.7666 150.25 96.4616 150.25 98.5525C150.25 100.643 151.945 102.338 154.036 102.338Z" fill="#A394FB"/>
        <path d="M177.625 125.928C179.716 125.928 181.411 124.233 181.411 122.142C181.411 120.051 179.716 118.356 177.625 118.356C175.534 118.356 173.839 120.051 173.839 122.142C173.839 124.233 175.534 125.928 177.625 125.928Z" fill="#A394FB"/>
        <path d="M201.214 149.662C203.304 149.662 204.999 147.967 204.999 145.876C204.999 143.785 203.304 142.09 201.214 142.09C199.123 142.09 197.428 143.785 197.428 145.876C197.428 147.967 199.123 149.662 201.214 149.662Z" fill="#A394FB"/>
        <path d="M57.0603 57.6362C59.1512 57.6362 60.8461 55.9412 60.8461 53.8503C60.8461 51.7594 59.1512 50.0645 57.0603 50.0645C54.9694 50.0645 53.2744 51.7594 53.2744 53.8503C53.2744 55.9412 54.9694 57.6362 57.0603 57.6362Z" fill="#A394FB"/>
        <path d="M80.6492 81.2251C82.74 81.2251 84.435 79.5301 84.435 77.4392C84.435 75.3483 82.74 73.6533 80.6492 73.6533C78.5583 73.6533 76.8633 75.3483 76.8633 77.4392C76.8633 79.5301 78.5583 81.2251 80.6492 81.2251Z" fill="#A394FB"/>
        <path d="M104.238 104.959C106.329 104.959 108.024 103.264 108.024 101.174C108.024 99.0827 106.329 97.3877 104.238 97.3877C102.147 97.3877 100.452 99.0827 100.452 101.174C100.452 103.264 102.147 104.959 104.238 104.959Z" fill="#A394FB"/>
        <path d="M127.827 128.548C129.918 128.548 131.613 126.853 131.613 124.762C131.613 122.672 129.918 120.977 127.827 120.977C125.736 120.977 124.041 122.672 124.041 124.762C124.041 126.853 125.736 128.548 127.827 128.548Z" fill="#A394FB"/>
        <path d="M151.416 152.138C153.507 152.138 155.202 150.443 155.202 148.352C155.202 146.261 153.507 144.566 151.416 144.566C149.325 144.566 147.63 146.261 147.63 148.352C147.63 150.443 149.325 152.138 151.416 152.138Z" fill="#A394FB"/>
        <path d="M175.005 175.726C177.095 175.726 178.79 174.031 178.79 171.94C178.79 169.849 177.095 168.154 175.005 168.154C172.914 168.154 171.219 169.849 171.219 171.94C171.219 174.031 172.914 175.726 175.005 175.726Z" fill="#A394FB"/>
        <path d="M30.8503 83.8457C32.9412 83.8457 34.6362 82.1507 34.6362 80.0598C34.6362 77.9689 32.9412 76.2739 30.8503 76.2739C28.7594 76.2739 27.0645 77.9689 27.0645 80.0598C27.0645 82.1507 28.7594 83.8457 30.8503 83.8457Z" fill="#A394FB"/>
        <path d="M54.4392 107.435C56.5301 107.435 58.2251 105.74 58.2251 103.649C58.2251 101.558 56.5301 99.8628 54.4392 99.8628C52.3483 99.8628 50.6533 101.558 50.6533 103.649C50.6533 105.74 52.3483 107.435 54.4392 107.435Z" fill="#A394FB"/>
        <path d="M78.1736 131.023C80.2644 131.023 81.9594 129.328 81.9594 127.238C81.9594 125.147 80.2644 123.452 78.1736 123.452C76.0827 123.452 74.3877 125.147 74.3877 127.238C74.3877 129.328 76.0827 131.023 78.1736 131.023Z" fill="#A394FB"/>
        <path d="M101.762 154.612C103.853 154.612 105.548 152.917 105.548 150.826C105.548 148.736 103.853 147.041 101.762 147.041C99.6715 147.041 97.9766 148.736 97.9766 150.826C97.9766 152.917 99.6715 154.612 101.762 154.612Z" fill="#A394FB"/>
        <path d="M125.351 178.201C127.442 178.201 129.137 176.506 129.137 174.415C129.137 172.324 127.442 170.629 125.351 170.629C123.26 170.629 121.565 172.324 121.565 174.415C121.565 176.506 123.26 178.201 125.351 178.201Z" fill="#A394FB"/>
        <path d="M148.94 201.79C151.031 201.79 152.726 200.095 152.726 198.004C152.726 195.913 151.031 194.218 148.94 194.218C146.849 194.218 145.154 195.913 145.154 198.004C145.154 200.095 146.849 201.79 148.94 201.79Z" fill="#A394FB"/>
        <path d="M4.78587 109.91C6.87674 109.91 8.57173 108.215 8.57173 106.124C8.57173 104.033 6.87674 102.338 4.78587 102.338C2.69499 102.338 1 104.033 1 106.124C1 108.215 2.69499 109.91 4.78587 109.91Z" fill="#A394FB"/>
        <path d="M30.9962 132.334C29.5401 133.79 27.2103 133.79 25.7542 132.334C24.2981 130.878 24.2981 128.548 25.7542 127.092C27.2103 125.636 29.5401 125.636 30.9962 127.092C32.4523 128.548 32.4523 130.878 30.9962 132.334Z" fill="#A394FB"/>
        <path d="M51.9636 157.088C54.0545 157.088 55.7495 155.393 55.7495 153.302C55.7495 151.211 54.0545 149.516 51.9636 149.516C49.8727 149.516 48.1777 151.211 48.1777 153.302C48.1777 155.393 49.8727 157.088 51.9636 157.088Z" fill="#A394FB"/>
        <path d="M75.5525 180.822C77.6433 180.822 79.3383 179.127 79.3383 177.036C79.3383 174.945 77.6433 173.25 75.5525 173.25C73.4616 173.25 71.7666 174.945 71.7666 177.036C71.7666 179.127 73.4616 180.822 75.5525 180.822Z" fill="#A394FB"/>
        <path d="M99.1413 204.411C101.232 204.411 102.927 202.716 102.927 200.625C102.927 198.534 101.232 196.839 99.1413 196.839C97.0505 196.839 95.3555 198.534 95.3555 200.625C95.3555 202.716 97.0505 204.411 99.1413 204.411Z" fill="#A394FB"/>
        <path d="M122.876 228C124.967 228 126.662 226.305 126.662 224.215C126.662 222.124 124.967 220.429 122.876 220.429C120.785 220.429 119.09 222.124 119.09 224.215C119.09 226.305 120.785 228 122.876 228Z" fill="#A394FB"/>
    </g>
    <path d="M82.1238 7.57173C84.2146 7.57173 85.9096 5.87674 85.9096 3.78587C85.9096 1.69499 84.2146 0 82.1238 0C80.0329 0 78.3379 1.69499 78.3379 3.78587C78.3379 5.87674 80.0329 7.57173 82.1238 7.57173Z" fill="#908EE7"/>
    <path d="M105.713 31.1606C107.804 31.1606 109.498 29.4656 109.498 27.3747C109.498 25.2839 107.804 23.5889 105.713 23.5889C103.622 23.5889 101.927 25.2839 101.927 27.3747C101.927 29.4656 103.622 31.1606 105.713 31.1606Z" fill="#908EE7"/>
    <path d="M129.301 54.7495C131.392 54.7495 133.087 53.0545 133.087 50.9636C133.087 48.8727 131.392 47.1777 129.301 47.1777C127.211 47.1777 125.516 48.8727 125.516 50.9636C125.516 53.0545 127.211 54.7495 129.301 54.7495Z" fill="#908EE7"/>
    <path d="M153.036 78.3383C155.127 78.3383 156.822 76.6433 156.822 74.5525C156.822 72.4616 155.127 70.7666 153.036 70.7666C150.945 70.7666 149.25 72.4616 149.25 74.5525C149.25 76.6433 150.945 78.3383 153.036 78.3383Z" fill="#908EE7"/>
    <path d="M176.625 101.928C178.716 101.928 180.411 100.233 180.411 98.1418C180.411 96.0509 178.716 94.356 176.625 94.356C174.534 94.356 172.839 96.0509 172.839 98.1418C172.839 100.233 174.534 101.928 176.625 101.928Z" fill="#908EE7"/>
    <path d="M200.214 125.662C202.304 125.662 203.999 123.967 203.999 121.876C203.999 119.785 202.304 118.09 200.214 118.09C198.123 118.09 196.428 119.785 196.428 121.876C196.428 123.967 198.123 125.662 200.214 125.662Z" fill="#908EE7"/>
    <path d="M56.0603 33.6362C58.1512 33.6362 59.8461 31.9412 59.8461 29.8503C59.8461 27.7594 58.1512 26.0645 56.0603 26.0645C53.9694 26.0645 52.2744 27.7594 52.2744 29.8503C52.2744 31.9412 53.9694 33.6362 56.0603 33.6362Z" fill="#908EE7"/>
    <path d="M79.6492 57.2251C81.74 57.2251 83.435 55.5301 83.435 53.4392C83.435 51.3483 81.74 49.6533 79.6492 49.6533C77.5583 49.6533 75.8633 51.3483 75.8633 53.4392C75.8633 55.5301 77.5583 57.2251 79.6492 57.2251Z" fill="#908EE7"/>
    <path d="M103.238 80.9594C105.329 80.9594 107.024 79.2644 107.024 77.1736C107.024 75.0827 105.329 73.3877 103.238 73.3877C101.147 73.3877 99.4522 75.0827 99.4522 77.1736C99.4522 79.2644 101.147 80.9594 103.238 80.9594Z" fill="#908EE7"/>
    <path d="M126.827 104.548C128.918 104.548 130.613 102.853 130.613 100.762C130.613 98.6715 128.918 96.9766 126.827 96.9766C124.736 96.9766 123.041 98.6715 123.041 100.762C123.041 102.853 124.736 104.548 126.827 104.548Z" fill="#908EE7"/>
    <path d="M150.416 128.138C152.507 128.138 154.202 126.443 154.202 124.352C154.202 122.261 152.507 120.566 150.416 120.566C148.325 120.566 146.63 122.261 146.63 124.352C146.63 126.443 148.325 128.138 150.416 128.138Z" fill="#908EE7"/>
    <path d="M174.005 151.726C176.095 151.726 177.79 150.031 177.79 147.94C177.79 145.849 176.095 144.154 174.005 144.154C171.914 144.154 170.219 145.849 170.219 147.94C170.219 150.031 171.914 151.726 174.005 151.726Z" fill="#908EE7"/>
    <path d="M29.8503 59.8457C31.9412 59.8457 33.6362 58.1507 33.6362 56.0598C33.6362 53.9689 31.9412 52.2739 29.8503 52.2739C27.7594 52.2739 26.0645 53.9689 26.0645 56.0598C26.0645 58.1507 27.7594 59.8457 29.8503 59.8457Z" fill="#908EE7"/>
    <path d="M53.4392 83.4345C55.5301 83.4345 57.2251 81.7395 57.2251 79.6487C57.2251 77.5578 55.5301 75.8628 53.4392 75.8628C51.3483 75.8628 49.6533 77.5578 49.6533 79.6487C49.6533 81.7395 51.3483 83.4345 53.4392 83.4345Z" fill="#908EE7"/>
    <path d="M77.1736 107.023C79.2644 107.023 80.9594 105.328 80.9594 103.238C80.9594 101.147 79.2644 99.4517 77.1736 99.4517C75.0827 99.4517 73.3877 101.147 73.3877 103.238C73.3877 105.328 75.0827 107.023 77.1736 107.023Z" fill="#908EE7"/>
    <path d="M100.762 130.612C102.853 130.612 104.548 128.917 104.548 126.826C104.548 124.736 102.853 123.041 100.762 123.041C98.6715 123.041 96.9766 124.736 96.9766 126.826C96.9766 128.917 98.6715 130.612 100.762 130.612Z" fill="#908EE7"/>
    <path d="M124.351 154.201C126.442 154.201 128.137 152.506 128.137 150.415C128.137 148.324 126.442 146.629 124.351 146.629C122.26 146.629 120.565 148.324 120.565 150.415C120.565 152.506 122.26 154.201 124.351 154.201Z" fill="#908EE7"/>
    <path d="M147.94 177.79C150.031 177.79 151.726 176.095 151.726 174.004C151.726 171.913 150.031 170.218 147.94 170.218C145.849 170.218 144.154 171.913 144.154 174.004C144.154 176.095 145.849 177.79 147.94 177.79Z" fill="#908EE7"/>
    <path d="M3.78587 85.9101C5.87674 85.9101 7.57173 84.2151 7.57173 82.1242C7.57173 80.0334 5.87674 78.3384 3.78587 78.3384C1.69499 78.3384 0 80.0334 0 82.1242C0 84.2151 1.69499 85.9101 3.78587 85.9101Z" fill="#908EE7"/>
    <path d="M29.9962 108.334C28.5401 109.79 26.2103 109.79 24.7542 108.334C23.2981 106.878 23.2981 104.548 24.7542 103.092C26.2103 101.636 28.5401 101.636 29.9962 103.092C31.4523 104.548 31.4523 106.878 29.9962 108.334Z" fill="#908EE7"/>
    <path d="M50.9636 133.088C53.0545 133.088 54.7495 131.393 54.7495 129.302C54.7495 127.211 53.0545 125.516 50.9636 125.516C48.8727 125.516 47.1777 127.211 47.1777 129.302C47.1777 131.393 48.8727 133.088 50.9636 133.088Z" fill="#908EE7"/>
    <path d="M74.5525 156.822C76.6433 156.822 78.3383 155.127 78.3383 153.036C78.3383 150.945 76.6433 149.25 74.5525 149.25C72.4616 149.25 70.7666 150.945 70.7666 153.036C70.7666 155.127 72.4616 156.822 74.5525 156.822Z" fill="#908EE7"/>
    <path d="M98.1413 180.411C100.232 180.411 101.927 178.716 101.927 176.625C101.927 174.534 100.232 172.839 98.1413 172.839C96.0505 172.839 94.3555 174.534 94.3555 176.625C94.3555 178.716 96.0505 180.411 98.1413 180.411Z" fill="#908EE7"/>
    <path d="M121.876 204C123.967 204 125.662 202.305 125.662 200.215C125.662 198.124 123.967 196.429 121.876 196.429C119.785 196.429 118.09 198.124 118.09 200.215C118.09 202.305 119.785 204 121.876 204Z" fill="#908EE7"/>
</svg>
