<svg width="24" height="24" viewBox="0 0 24 24" fill="none" xmlns="http://www.w3.org/2000/svg">
    <path d="M0 0V24H24V0H0ZM13.9909 13.0097C13.5805 15.7057 11.5705 17.2513 8.96815 17.2513C6.04374 17.2513 3.67281 14.8803 3.67281 11.9559C3.67281 9.03224 6.04374 6.66131 8.96815 6.66131C10.3828 6.66131 11.6223 7.16614 12.5245 8.04245L11.0048 9.56214C10.4902 9.04362 9.78585 8.76724 8.96815 8.76724C7.24671 8.76724 5.8511 10.2352 5.8511 11.9559C5.8511 13.6781 7.24671 15.1034 8.96815 15.1034C10.411 15.1034 11.5035 14.406 11.8187 13.0097H8.96815V10.8831H13.978C14.0382 11.2258 14.0686 11.5843 14.0686 11.9559C14.0685 12.3244 14.0419 12.6754 13.9909 13.0097ZM20.3499 12.3503H18.4944V14.205H17.1765V12.3503H15.321V11.0316H17.1765V9.17612H18.4944V11.0316H20.3499V12.3503Z" fill="#DD4B39"/>
</svg>
