<svg width="24" height="24" viewBox="0 0 24 24" fill="none" xmlns="http://www.w3.org/2000/svg">
    <path d="M11.9997 9.61359C10.6842 9.61359 9.61306 10.6842 9.61306 11.9997C9.61306 13.3158 10.6842 14.3869 11.9997 14.3869C13.3158 14.3869 14.3864 13.3158 14.3864 11.9997C14.3864 10.6842 13.3158 9.61359 11.9997 9.61359ZM11.9997 9.61359C10.6842 9.61359 9.61306 10.6842 9.61306 11.9997C9.61306 13.3158 10.6842 14.3869 11.9997 14.3869C13.3158 14.3869 14.3864 13.3158 14.3864 11.9997C14.3864 10.6842 13.3158 9.61359 11.9997 9.61359ZM15.9758 5.72234H8.02422C6.75505 5.72234 5.72234 6.75505 5.72234 8.02422V15.9758C5.72234 17.2449 6.75505 18.2777 8.02422 18.2777H15.9758C17.2449 18.2777 18.2777 17.2449 18.2777 15.9758V8.02422C18.2777 6.75505 17.2449 5.72234 15.9758 5.72234ZM11.9997 16.1332C9.72102 16.1332 7.86676 14.279 7.86676 11.9997C7.86676 9.72102 9.72102 7.86676 11.9997 7.86676C14.279 7.86676 16.1332 9.72102 16.1332 11.9997C16.1332 14.279 14.279 16.1332 11.9997 16.1332ZM16.2659 8.72148C15.7267 8.72148 15.288 8.2828 15.288 7.74353C15.288 7.20427 15.7267 6.76558 16.2659 6.76558C16.8052 6.76558 17.2439 7.20427 17.2439 7.74353C17.2439 8.2828 16.8052 8.72148 16.2659 8.72148ZM11.9997 9.61359C10.6842 9.61359 9.61306 10.6842 9.61306 11.9997C9.61306 13.3158 10.6842 14.3869 11.9997 14.3869C13.3158 14.3869 14.3864 13.3158 14.3864 11.9997C14.3864 10.6842 13.3158 9.61359 11.9997 9.61359ZM15.9758 5.72234H8.02422C6.75505 5.72234 5.72234 6.75505 5.72234 8.02422V15.9758C5.72234 17.2449 6.75505 18.2777 8.02422 18.2777H15.9758C17.2449 18.2777 18.2777 17.2449 18.2777 15.9758V8.02422C18.2777 6.75505 17.2449 5.72234 15.9758 5.72234ZM11.9997 16.1332C9.72102 16.1332 7.86676 14.279 7.86676 11.9997C7.86676 9.72102 9.72102 7.86676 11.9997 7.86676C14.279 7.86676 16.1332 9.72102 16.1332 11.9997C16.1332 14.279 14.279 16.1332 11.9997 16.1332ZM16.2659 8.72148C15.7267 8.72148 15.288 8.2828 15.288 7.74353C15.288 7.20427 15.7267 6.76558 16.2659 6.76558C16.8052 6.76558 17.2439 7.20427 17.2439 7.74353C17.2439 8.2828 16.8052 8.72148 16.2659 8.72148ZM11.9997 9.61359C10.6842 9.61359 9.61306 10.6842 9.61306 11.9997C9.61306 13.3158 10.6842 14.3869 11.9997 14.3869C13.3158 14.3869 14.3864 13.3158 14.3864 11.9997C14.3864 10.6842 13.3158 9.61359 11.9997 9.61359ZM0 0V24H24V0H0ZM20.024 15.9758C20.024 18.2081 18.2081 20.024 15.9758 20.024H8.02422C5.79185 20.024 3.97604 18.2081 3.97604 15.9758V8.02422C3.97604 5.79185 5.79185 3.97604 8.02422 3.97604H15.9758C18.2081 3.97604 20.024 5.79185 20.024 8.02422V15.9758ZM15.9758 5.72234H8.02422C6.75505 5.72234 5.72234 6.75505 5.72234 8.02422V15.9758C5.72234 17.2449 6.75505 18.2777 8.02422 18.2777H15.9758C17.2449 18.2777 18.2777 17.2449 18.2777 15.9758V8.02422C18.2777 6.75505 17.2449 5.72234 15.9758 5.72234ZM11.9997 16.1332C9.72102 16.1332 7.86676 14.279 7.86676 11.9997C7.86676 9.72102 9.72102 7.86676 11.9997 7.86676C14.279 7.86676 16.1332 9.72102 16.1332 11.9997C16.1332 14.279 14.279 16.1332 11.9997 16.1332ZM16.2659 8.72148C15.7267 8.72148 15.288 8.2828 15.288 7.74353C15.288 7.20427 15.7267 6.76558 16.2659 6.76558C16.8052 6.76558 17.2439 7.20427 17.2439 7.74353C17.2439 8.2828 16.8052 8.72148 16.2659 8.72148ZM11.9997 9.61359C10.6842 9.61359 9.61306 10.6842 9.61306 11.9997C9.61306 13.3158 10.6842 14.3869 11.9997 14.3869C13.3158 14.3869 14.3864 13.3158 14.3864 11.9997C14.3864 10.6842 13.3158 9.61359 11.9997 9.61359ZM11.9997 9.61359C10.6842 9.61359 9.61306 10.6842 9.61306 11.9997C9.61306 13.3158 10.6842 14.3869 11.9997 14.3869C13.3158 14.3869 14.3864 13.3158 14.3864 11.9997C14.3864 10.6842 13.3158 9.61359 11.9997 9.61359ZM11.9997 9.61359C10.6842 9.61359 9.61306 10.6842 9.61306 11.9997C9.61306 13.3158 10.6842 14.3869 11.9997 14.3869C13.3158 14.3869 14.3864 13.3158 14.3864 11.9997C14.3864 10.6842 13.3158 9.61359 11.9997 9.61359ZM15.9758 5.72234H8.02422C6.75505 5.72234 5.72234 6.75505 5.72234 8.02422V15.9758C5.72234 17.2449 6.75505 18.2777 8.02422 18.2777H15.9758C17.2449 18.2777 18.2777 17.2449 18.2777 15.9758V8.02422C18.2777 6.75505 17.2449 5.72234 15.9758 5.72234ZM11.9997 16.1332C9.72102 16.1332 7.86676 14.279 7.86676 11.9997C7.86676 9.72102 9.72102 7.86676 11.9997 7.86676C14.279 7.86676 16.1332 9.72102 16.1332 11.9997C16.1332 14.279 14.279 16.1332 11.9997 16.1332ZM16.2659 8.72148C15.7267 8.72148 15.288 8.2828 15.288 7.74353C15.288 7.20427 15.7267 6.76558 16.2659 6.76558C16.8052 6.76558 17.2439 7.20427 17.2439 7.74353C17.2439 8.2828 16.8052 8.72148 16.2659 8.72148ZM11.9997 9.61359C10.6842 9.61359 9.61306 10.6842 9.61306 11.9997C9.61306 13.3158 10.6842 14.3869 11.9997 14.3869C13.3158 14.3869 14.3864 13.3158 14.3864 11.9997C14.3864 10.6842 13.3158 9.61359 11.9997 9.61359ZM11.9997 9.61359C10.6842 9.61359 9.61306 10.6842 9.61306 11.9997C9.61306 13.3158 10.6842 14.3869 11.9997 14.3869C13.3158 14.3869 14.3864 13.3158 14.3864 11.9997C14.3864 10.6842 13.3158 9.61359 11.9997 9.61359ZM11.9997 9.61359C10.6842 9.61359 9.61306 10.6842 9.61306 11.9997C9.61306 13.3158 10.6842 14.3869 11.9997 14.3869C13.3158 14.3869 14.3864 13.3158 14.3864 11.9997C14.3864 10.6842 13.3158 9.61359 11.9997 9.61359ZM15.9758 5.72234H8.02422C6.75505 5.72234 5.72234 6.75505 5.72234 8.02422V15.9758C5.72234 17.2449 6.75505 18.2777 8.02422 18.2777H15.9758C17.2449 18.2777 18.2777 17.2449 18.2777 15.9758V8.02422C18.2777 6.75505 17.2449 5.72234 15.9758 5.72234ZM11.9997 16.1332C9.72102 16.1332 7.86676 14.279 7.86676 11.9997C7.86676 9.72102 9.72102 7.86676 11.9997 7.86676C14.279 7.86676 16.1332 9.72102 16.1332 11.9997C16.1332 14.279 14.279 16.1332 11.9997 16.1332ZM16.2659 8.72148C15.7267 8.72148 15.288 8.2828 15.288 7.74353C15.288 7.20427 15.7267 6.76558 16.2659 6.76558C16.8052 6.76558 17.2439 7.20427 17.2439 7.74353C17.2439 8.2828 16.8052 8.72148 16.2659 8.72148ZM11.9997 9.61359C10.6842 9.61359 9.61306 10.6842 9.61306 11.9997C9.61306 13.3158 10.6842 14.3869 11.9997 14.3869C13.3158 14.3869 14.3864 13.3158 14.3864 11.9997C14.3864 10.6842 13.3158 9.61359 11.9997 9.61359Z" fill="#C536A4"/>
</svg>
