<svg xmlns="http://www.w3.org/2000/svg" xmlns:xlink="http://www.w3.org/1999/xlink" width="24" height="24" viewBox="0 0 24 24" version="1.1">
    <path style=" stroke:none;fill-rule:evenodd;fill:rgb(100%,100%,100%);fill-opacity:1;" d="M 17.914062 2.566406 L 6.015625 2.566406 C 4.125 2.566406 2.589844 4.089844 2.589844 5.964844 L 2.589844 17.757812 C 2.589844 19.632812 4.125 21.15625 6.015625 21.15625 L 17.914062 21.15625 C 19.804688 21.15625 21.339844 19.632812 21.339844 17.757812 L 21.339844 5.964844 C 21.339844 4.089844 19.804688 2.566406 17.914062 2.566406 Z M 6.015625 0 C 2.695312 0 0 2.671875 0 5.964844 L 0 17.757812 C 0 21.050781 2.695312 23.722656 6.015625 23.722656 L 17.914062 23.722656 C 21.234375 23.722656 23.929688 21.050781 23.929688 17.757812 L 23.929688 5.964844 C 23.929688 2.671875 21.234375 0 17.914062 0 Z M 19.800781 5.550781 C 19.800781 6.351562 19.144531 7.003906 18.332031 7.003906 C 17.519531 7.003906 16.863281 6.351562 16.863281 5.550781 C 16.863281 4.746094 17.519531 4.09375 18.332031 4.09375 C 19.144531 4.09375 19.800781 4.746094 19.800781 5.550781 Z M 12 15.398438 C 10.046875 15.398438 8.464844 13.832031 8.464844 11.894531 C 8.464844 9.960938 10.046875 8.394531 12 8.394531 C 13.953125 8.394531 15.535156 9.960938 15.535156 11.894531 C 15.535156 13.832031 13.953125 15.398438 12 15.398438 Z M 5.808594 11.894531 C 5.808594 8.503906 8.578125 5.757812 12 5.757812 C 15.421875 5.757812 18.191406 8.503906 18.191406 11.894531 C 18.191406 15.285156 15.421875 18.035156 12 18.035156 C 8.578125 18.035156 5.808594 15.285156 5.808594 11.894531 Z M 5.808594 11.894531 "/>
</svg>
