<svg width="24" height="24" viewBox="0 0 24 24" fill="none" xmlns="http://www.w3.org/2000/svg">
<g clip-path="url(#clip0)">
<path d="M23.9744 7.95115L22.9878 1.74248C22.8464 0.851706 22.1479 0.153235 21.2571 0.0118335L15.0485 -0.974775C14.3894 -1.07952 13.72 -0.861993 13.2484 -0.390404L0.61052 12.2475C-0.203181 13.0612 -0.203181 14.3802 0.61052 15.194L7.8058 22.3892C8.6195 23.2029 9.93843 23.2029 10.7523 22.3891L23.3901 9.75127C23.8617 9.27962 24.0792 8.6102 23.9744 7.95115ZM10.2113 20.7767C9.89337 21.0946 9.37766 21.0946 9.05964 20.7767L2.22305 13.9401C1.9051 13.6221 1.9051 13.1064 2.22305 12.7884C2.54087 12.4705 3.05671 12.4704 3.37472 12.7884L10.2113 19.625C10.5293 19.943 10.5291 20.4587 10.2113 20.7767ZM19.4084 5.81029C18.7956 6.4231 17.8021 6.42303 17.1894 5.81029C16.5766 5.19749 16.5765 4.20417 17.1894 3.59137C17.8021 2.97856 18.7955 2.97856 19.4084 3.59137C20.021 4.20411 20.021 5.19755 19.4084 5.81029Z" fill="white"/>
</g>
<defs>
<clipPath id="clip0">
<rect width="24" height="24" fill="white"/>
</clipPath>
</defs>
</svg>
