<?xml version="1.0" encoding="UTF-8" standalone="no"?><svg width="400" height="52" viewBox="0 0 400 52" version="1.1" xmlns="http://www.w3.org/2000/svg" xmlns:xlink="http://www.w3.org/1999/xlink" xml:space="preserve" xmlns:serif="http://www.serif.com/" style="fill-rule:evenodd;clip-rule:evenodd;stroke-linejoin:round;stroke-miterlimit:2;fill:#b74a8c"><path d="M33.354,3.864c-0.331,0 -0.638,0.168 -0.818,0.444l-14.486,22.277c-0.21,0.322 -0.21,0.739 0,1.062l8.356,12.879c0.42,0.649 -0.045,1.506 -0.818,1.506l-3.731,0c-0.329,0 -0.637,-0.166 -0.817,-0.443l-9.017,-13.866c-0.211,-0.322 -0.211,-0.739 -0.001,-1.062l13.81,-21.291c0.421,-0.648 -0.045,-1.506 -0.818,-1.506l-9.553,0c-0.33,0 -0.637,0.168 -0.817,0.444l-14.486,22.277c-0.21,0.322 -0.21,0.739 -0.001,1.062l14.51,22.366c0.179,0.276 0.487,0.443 0.817,0.443l27.42,0c0.773,0 1.238,-0.857 0.817,-1.506l-13.806,-21.227c-0.211,-0.322 -0.211,-0.739 -0.001,-1.062l9.06,-13.97c0.18,-0.276 0.488,-0.443 0.818,-0.443l3.677,0c0.774,0 1.239,0.857 0.817,1.505l-8.343,12.832c-0.21,0.322 -0.21,0.739 0,1.062l14.509,22.366c0.18,0.276 0.488,0.443 0.818,0.443l9.526,0c0.774,0 1.239,-0.857 0.817,-1.506l-13.805,-21.227c-0.21,-0.322 -0.211,-0.739 -0.001,-1.062l13.81,-21.291c0.422,-0.648 -0.044,-1.506 -0.817,-1.506l-27.446,0Z" style="fill:url(#_Linear1);fill-rule:nonzero;"/><path d="M67.364,3.583l0,46.999l13.809,0l0,-15.764l4.528,0l7.426,15.764l15.439,0l-8.925,-17.816c4.919,-2.345 7.589,-7.686 7.589,-13.223c0,-10.065 -6.449,-15.96 -18.988,-15.96l-20.878,0Zm13.809,10.195l5.733,0c3.713,0 6.221,2.508 6.221,5.993c0,3.55 -2.378,5.927 -6.254,5.927l-5.7,0l0,-11.92Z" style="fill:url(#_Linear2);fill-rule:nonzero;"/><path d="M109.964,32.798c0,11.694 7.003,18.696 18.794,18.696c9.869,0 16.644,-4.821 17.751,-12.572l-11.888,0c-0.782,2.15 -2.964,3.42 -5.668,3.42c-3.582,0 -6.123,-2.541 -6.123,-6.058l0,-0.847l23.842,0l0,-3.615c0,-11.009 -7.198,-18.109 -18.338,-18.109c-11.301,0 -18.37,7.328 -18.37,19.085Zm18.664,-9.901c3.126,0 5.374,2.085 5.602,5.309l-11.205,0c0.261,-3.094 2.574,-5.309 5.603,-5.309Z" style="fill:url(#_Linear3);fill-rule:nonzero;"/><path d="M184.244,21.823l-0.261,0c-0.879,-5.048 -4.527,-7.915 -9.999,-7.915c-4.918,0 -8.957,3.127 -10.292,7.98l-0.261,0l0,-7.263l-13.028,0l0,35.957l13.353,0l0,-20.877c0,-3.127 1.629,-5.082 4.333,-5.082c2.866,0 4.332,1.727 4.332,5.147l0,20.812l12.669,0l0,-20.877c0,-3.16 1.597,-5.082 4.3,-5.082c2.898,0 4.364,1.694 4.364,5.114l0,20.845l13.354,0l0,-24.297c0,-7.329 -4.821,-12.377 -11.823,-12.377c-5.472,0 -9.836,3.159 -11.041,7.915Z" style="fill:url(#_Linear4);fill-rule:nonzero;"/><path d="M211.987,6.319c0,3.583 2.866,6.319 6.643,6.319c3.78,0 6.645,-2.736 6.645,-6.319c0,-3.583 -2.865,-6.319 -6.645,-6.319c-3.777,0 -6.643,2.736 -6.643,6.319Zm-0.033,44.263l13.353,0l0,-35.958l-13.353,0l0,35.958Z" style="fill:url(#_Linear5);fill-rule:nonzero;"/><path d="M243.559,21.692l-0.261,0l0,-7.067l-13.028,0l0,35.957l13.354,0l0,-20.096c0,-3.354 1.922,-5.797 5.081,-5.797c3.355,0 5.049,2.214 5.049,5.83l0,20.063l13.353,0l0,-23.027c0,-8.631 -4.429,-13.647 -12.506,-13.647c-5.472,0 -9.218,2.736 -11.042,7.784Z" style="fill:url(#_Linear6);fill-rule:nonzero;"/><path d="M271.966,6.319c0,3.583 2.867,6.319 6.645,6.319c3.778,0 6.645,-2.736 6.645,-6.319c0,-3.583 -2.867,-6.319 -6.645,-6.319c-3.778,0 -6.645,2.736 -6.645,6.319Zm-0.032,44.263l13.354,0l0,-35.958l-13.354,0l0,35.958Z" style="fill:url(#_Linear7);fill-rule:nonzero;"/><path d="M289.338,25.796c0,5.7 3.875,9.543 11.139,10.977l6.938,1.368c2.442,0.455 3.387,1.107 3.387,2.247c0,1.498 -1.563,2.377 -4.169,2.377c-2.997,0 -4.951,-1.465 -5.212,-3.843l-12.897,0c0.456,7.654 6.709,12.572 17.946,12.572c10.521,0 17.556,-4.885 17.556,-12.703c0,-5.472 -3.193,-8.533 -10.325,-9.933l-8.111,-1.596c-2.312,-0.424 -3.485,-1.238 -3.485,-2.345c0,-1.499 1.564,-2.475 3.974,-2.475c2.899,0 4.755,1.465 4.755,3.81l12.116,0c0,-7.849 -6.285,-12.539 -16.773,-12.539c-10.488,0 -16.839,4.592 -16.839,12.083Z" style="fill:url(#_Linear8);fill-rule:nonzero;"/><path d="M325.843,32.571c0,11.855 7.1,18.923 18.76,18.923c10.683,0 17.328,-5.829 17.458,-15.568l-12.149,0c-0.228,3.549 -2.15,5.635 -5.146,5.635c-3.55,0 -5.407,-3.128 -5.407,-8.99c0,-5.797 1.89,-8.924 5.407,-8.924c2.866,0 4.886,2.214 5.146,5.862l12.149,0c-0.162,-9.738 -7.068,-15.796 -17.523,-15.796c-11.563,0 -18.695,7.132 -18.695,18.858Z" style="fill:url(#_Linear9);fill-rule:nonzero;"/><path d="M364.196,32.798c0,11.694 7.003,18.696 18.793,18.696c9.869,0 16.644,-4.821 17.751,-12.572l-11.888,0c-0.781,2.15 -2.964,3.42 -5.667,3.42c-3.582,0 -6.123,-2.541 -6.123,-6.058l0,-0.847l23.841,0l0,-3.615c0,-11.009 -7.198,-18.109 -18.337,-18.109c-11.302,0 -18.37,7.328 -18.37,19.085Zm18.664,-9.901c3.126,0 5.374,2.085 5.601,5.309l-11.204,0c0.26,-3.094 2.573,-5.309 5.603,-5.309Z" style="fill:url(#_Linear10);fill-rule:nonzero;"/><defs><linearGradient id="_Linear1" x1="0" y1="0" x2="1" y2="0" gradientUnits="userSpaceOnUse" gradientTransform="matrix(31.6351,-54.7937,54.7937,31.6351,21.7051,54.1989)"><stop offset="0" style="stop-color:#db559e;stop-opacity:1"/><stop offset="0.99" style="stop-color:#6e397e;stop-opacity:1"/><stop offset="1" style="stop-color:#6e397e;stop-opacity:1"/></linearGradient><linearGradient id="_Linear2" x1="0" y1="0" x2="1" y2="0" gradientUnits="userSpaceOnUse" gradientTransform="matrix(27.4186,-47.4904,47.4904,27.4186,72.6385,53.6277)"><stop offset="0" style="stop-color:#db559e;stop-opacity:1"/><stop offset="0.99" style="stop-color:#663367;stop-opacity:1"/><stop offset="1" style="stop-color:#663367;stop-opacity:1"/></linearGradient><linearGradient id="_Linear3" x1="0" y1="0" x2="1" y2="0" gradientUnits="userSpaceOnUse" gradientTransform="matrix(19.2708,-33.378,33.378,19.2708,119.111,49.528)"><stop offset="0" style="stop-color:#db559e;stop-opacity:1"/><stop offset="0.99" style="stop-color:#663367;stop-opacity:1"/><stop offset="1" style="stop-color:#663367;stop-opacity:1"/></linearGradient><linearGradient id="_Linear4" x1="0" y1="0" x2="1" y2="0" gradientUnits="userSpaceOnUse" gradientTransform="matrix(27.961,-48.4299,48.4299,27.961,163.882,58.3644)"><stop offset="0" style="stop-color:#db559e;stop-opacity:1"/><stop offset="0.99" style="stop-color:#663367;stop-opacity:1"/><stop offset="1" style="stop-color:#663367;stop-opacity:1"/></linearGradient><linearGradient id="_Linear5" x1="0" y1="0" x2="1" y2="0" gradientUnits="userSpaceOnUse" gradientTransform="matrix(24.0587,-41.6708,41.6708,24.0587,207.021,47.7347)"><stop offset="0" style="stop-color:#db559e;stop-opacity:1"/><stop offset="0.99" style="stop-color:#663367;stop-opacity:1"/><stop offset="1" style="stop-color:#663367;stop-opacity:1"/></linearGradient><linearGradient id="_Linear6" x1="0" y1="0" x2="1" y2="0" gradientUnits="userSpaceOnUse" gradientTransform="matrix(22.9696,-39.7846,39.7846,22.9696,236.299,54.0631)"><stop offset="0" style="stop-color:#db559e;stop-opacity:1"/><stop offset="0.99" style="stop-color:#663367;stop-opacity:1"/><stop offset="1" style="stop-color:#663367;stop-opacity:1"/></linearGradient><linearGradient id="_Linear7" x1="0" y1="0" x2="1" y2="0" gradientUnits="userSpaceOnUse" gradientTransform="matrix(24.0587,-41.6709,41.6709,24.0587,267.001,47.7348)"><stop offset="0" style="stop-color:#db559e;stop-opacity:1"/><stop offset="0.99" style="stop-color:#663367;stop-opacity:1"/><stop offset="1" style="stop-color:#663367;stop-opacity:1"/></linearGradient><linearGradient id="_Linear8" x1="0" y1="0" x2="1" y2="0" gradientUnits="userSpaceOnUse" gradientTransform="matrix(19.7819,-34.2633,34.2633,19.7819,296.512,49.927)"><stop offset="0" style="stop-color:#db559e;stop-opacity:1"/><stop offset="0.99" style="stop-color:#663367;stop-opacity:1"/><stop offset="1" style="stop-color:#663367;stop-opacity:1"/></linearGradient><linearGradient id="_Linear9" x1="0" y1="0" x2="1" y2="0" gradientUnits="userSpaceOnUse" gradientTransform="matrix(19.3477,-33.5111,33.5111,19.3477,334.761,49.3506)"><stop offset="0" style="stop-color:#db559e;stop-opacity:1"/><stop offset="0.99" style="stop-color:#663367;stop-opacity:1"/><stop offset="1" style="stop-color:#663367;stop-opacity:1"/></linearGradient><linearGradient id="_Linear10" x1="0" y1="0" x2="1" y2="0" gradientUnits="userSpaceOnUse" gradientTransform="matrix(19.2708,-33.3779,33.3779,19.2708,373.342,49.5279)"><stop offset="0" style="stop-color:#db559e;stop-opacity:1"/><stop offset="0.99" style="stop-color:#663367;stop-opacity:1"/><stop offset="1" style="stop-color:#663367;stop-opacity:1"/></linearGradient></defs></svg>
