<svg xmlns="http://www.w3.org/2000/svg" xmlns:xlink="http://www.w3.org/1999/xlink" viewBox="0 0 183.93 153.2"><defs><style>.cls-1{fill:url(#linear-gradient);}</style><linearGradient id="linear-gradient" x1="99.65" y1="108.59" x2="99.65" gradientUnits="userSpaceOnUse"><stop offset="0" stop-color="#00f4d2"/><stop offset="1" stop-color="#00a4fe"/></linearGradient></defs><g id="Layer_2" data-name="Layer 2"><g id="Layer_1_Image" data-name="Layer 1 Image"><path d="M102.14,26.83,93.21,43.45a1.09,1.09,0,0,1-1.91,0l-15.11-27a1.08,1.08,0,0,0-1-.56H31.14a1.09,1.09,0,0,0-.95,1.61L91.31,129.72a1.09,1.09,0,0,0,1.91,0L163,.57A1.09,1.09,0,0,1,164,0h18.86a1.09,1.09,0,0,1,1,1.6l-81.2,151a1.08,1.08,0,0,1-1,.58H82.4a1.08,1.08,0,0,1-1-.58L.13,1.6a1.09,1.09,0,0,1,1-1.6H88.14a1.09,1.09,0,0,1,1,.57l13,24.26A2.09,2.09,0,0,1,102.14,26.83Z"/><polygon class="cls-1" points="48.48 28.37 69.61 28.37 91.97 69.26 129.88 0 150.81 0 91.97 108.59 48.48 28.37"/></g></g></svg>